<svg width="36" height="36" viewBox="0 0 36 36" fill="none" xmlns="http://www.w3.org/2000/svg">
<path d="M13.5 9H16.5V16.5H13.5V9ZM19.5 9H22.5V16.5H19.5V9Z" fill="#E24D17"/>
<path d="M30 19.5H28.5V4.5C28.5 3.675 27.825 3 27 3H9C8.175 3 7.5 3.675 7.5 4.5V19.5H6C5.175 19.5 4.5 20.175 4.5 21V28.5C4.5 30.975 6.525 33 9 33H27C29.475 33 31.5 30.975 31.5 28.5V21C31.5 20.175 30.825 19.5 30 19.5ZM10.5 6H25.5V19.5H10.5V6ZM28.5 28.5C28.5 29.325 27.825 30 27 30H9C8.175 30 7.5 29.325 7.5 28.5V22.5H28.5V28.5Z" fill="#E24D17"/>
</svg>
