<svg width="36" height="36" viewBox="0 0 36 36" fill="none" xmlns="http://www.w3.org/2000/svg">
<path d="M30.0459 11.5791L22.1709 3.70406C22.0664 3.59962 21.9423 3.51681 21.8057 3.46035C21.6691 3.40389 21.5228 3.37488 21.375 3.375H7.875C7.27826 3.375 6.70597 3.61205 6.28401 4.03401C5.86205 4.45597 5.625 5.02826 5.625 5.625V30.375C5.625 30.9717 5.86205 31.544 6.28401 31.966C6.70597 32.3879 7.27826 32.625 7.875 32.625H28.125C28.7217 32.625 29.294 32.3879 29.716 31.966C30.1379 31.544 30.375 30.9717 30.375 30.375V12.375C30.3751 12.2272 30.3461 12.0809 30.2897 11.9443C30.2332 11.8077 30.1504 11.6836 30.0459 11.5791ZM28.125 30.375H7.875V5.625H20.9095L28.125 12.8405V30.375ZM24.75 15.75H11.25C10.9516 15.75 10.6655 15.8685 10.4545 16.0795C10.2435 16.2905 10.125 16.5766 10.125 16.875V27C10.125 27.2984 10.2435 27.5845 10.4545 27.7955C10.6655 28.0065 10.9516 28.125 11.25 28.125H24.75C25.0484 28.125 25.3345 28.0065 25.5455 27.7955C25.7565 27.5845 25.875 27.2984 25.875 27V16.875C25.875 16.5766 25.7565 16.2905 25.5455 16.0795C25.3345 15.8685 25.0484 15.75 24.75 15.75ZM23.625 25.875H21.375V21.375C21.375 21.0766 21.2565 20.7905 21.0455 20.5795C20.8345 20.3685 20.5484 20.25 20.25 20.25C19.9516 20.25 19.6655 20.3685 19.4545 20.5795C19.2435 20.7905 19.125 21.0766 19.125 21.375V25.875H16.875V21.375C16.875 21.0766 16.7565 20.7905 16.5455 20.5795C16.3345 20.3685 16.0484 20.25 15.75 20.25C15.4516 20.25 15.1655 20.3685 14.9545 20.5795C14.7435 20.7905 14.625 21.0766 14.625 21.375V25.875H12.375V18H23.625V25.875Z" fill="#E24D17"/>
</svg>
